<?xml version="1.0" encoding="UTF-8" standalone="no"?>
<svg
   width="18432.001"
   height="10368"
   viewBox="0 0 13824 7776"
   version="1.1"
   id="svg39"
   xmlns="http://www.w3.org/2000/svg"
   xmlns:svg="http://www.w3.org/2000/svg">
  <style
     id="style1"><![CDATA[.B{clip-path:url(#N)}.C{stroke:#ccc}.D{stroke-width:40}]]></style>
  <path
     d="M0 7776h13824V0H0z"
     fill="#fff"
     id="path1" />
  <g
     fill="none"
     class="C D"
     id="g20">
    <g
       stroke-dasharray="148,64"
       id="g9">
      <path
         d="m 5258.541,6045.653 c -370.0552,-115.0789 -553.7609,-498.2268 -847.4009,-724.7118 -154.4961,-157.3527 -391.6189,-240.9641 -500.9391,-434.6771 64.6276,-133.5079 270.5913,-80.8188 396.1792,-73.605 441.5121,86.1647 869.3894,293.6631 1197.7285,602.407 200.2783,171.0925 107.8231,512.8367 -105.4557,622.7689 -44.4795,17.888 -93.7264,15.1796 -140.112,7.818 z M 8185.976,2674.426 c -147.3449,-89.0324 -17.773,-284.3534 -12.814,-417.861 65.3123,-269.7431 -44.6524,-629.2598 229.658,-807.827 245.1553,-136.5779 634.9097,-68.0082 762.499,197.945 34.8741,223.507 -100.7127,444.493 -239.9,609.881 -196.3468,188.3776 -427.8585,395.1733 -709.039,420.754 l -23.8059,-2.265 -6.6001,-0.628 M 0,4624.387 c 791.09727,-67.8028 1588.869,-21.9774 2378.7714,-116.3733 594.1414,-46.6773 1196.745,-63.3707 1788.5216,16.5042 614.1879,106.5388 1172.4954,437.144 1637.036,842.4501 174.2961,141.4956 205.7915,370.9703 168.774,579.387 -29.9383,190.3265 79.9129,397.1551 -9.791,574.034 -198.4645,116.1671 -446.1159,11.4949 -650.542,-43.982 -384.5114,-116.0254 -659.0893,-423.4984 -878.95,-743.51 C 4090.6145,5291.7185 3532.4124,5104.9042 3012.5222,4964.9229 2483.778,4834.3685 1942.7647,4969.0973 1440.7765,5140.4047 1079.8939,5269.7386 671.29545,5247.8355 338.49178,5051.0373 222.42763,4991.1501 109.84287,4924.5738 0,4854.018 M 0,721.519 C 165.03157,811.98641 425.27539,876.27124 455.72418,1091.196 406.886,1272.6749 150.46501,1282.5385 0,1312.992 m 9595.482,3871.372 c -298.0223,-55.9859 -485.1535,-492.2589 -216.848,-693.923 287.9348,-166.7089 672.575,-63.4734 921.602,131.279 177.391,130.5117 44.524,356.5236 -108.42,437.544 -172.017,115.7444 -391.3236,180.4658 -596.334,125.1 z"
         class="B"
         clip-path="url(#N)"
         id="path2" />
      <path
         d="m 7643.859,3203.169 c -161.5727,-31.5416 -395.2196,-19.6072 -481.868,-184.252 70.9669,-239.0292 345.2366,-348.1295 483.686,-548.893 330.4471,-323.3568 126.0374,-857.304 436.431,-1189.267 307.0067,-284.03337 780.4736,-138.302 1116.9335,13.8901 232.9713,89.9348 406.1045,354.5369 276.4125,595.9889 -140.1212,443.7522 -538.7257,727.5854 -855.787,1042.162 -263.5322,243.8701 -628.515,308.0869 -975.808,270.371 z m 271.06,4342.903 C 7446.7516,7378.1478 6951.922,7311.7233 6476.5681,7173.7054 5974.9248,6953.5836 5449.2906,6789.9967 4953.998,6556.233 4515.4907,6359.3386 4312.5099,5900.3808 3973.932,5591.5517 3342.5662,5131.8877 2480.1422,5023.2739 1751.574,5305.976 1360.7699,5446.3681 919.68869,5671.9056 514.22061,5443.6483 339.48394,5364.9744 173.98499,5267.4878 0,5187.188 m 13824,-181.79 c -359.562,192.6974 -773.076,498.3894 -1192.661,282.76 -181.424,-96.9385 -428.185,-192.577 -485.529,-409.101 80.77,-226.0795 372.59,-269.8928 568.377,-363.4758 354.892,-129.8569 730.16,-210.5141 1109.816,-190.0412"
         class="B"
         clip-path="url(#N)"
         id="path3" />
      <path
         d="m 0,497.066 c 305.16257,142.85245 674.79053,225.54494 884.085,509.241 121.8024,238.0481 -170.28026,414.5194 -368.129,457.41 C 348.10088,1510.3476 173.18243,1521.4122 0,1530.106 m 9649.694,3963.276 c -570.8199,-26.8064 -894.6551,-771.6856 -596.328,-1232.191 229.7021,-247.5323 606.7268,-135.1542 892.6088,-68.6219 342.5282,112.267 716.6692,226.5161 970.8102,494.222 104.942,185.5663 -151.069,299.8442 -272.971,389.231 -306.598,181.308 -621.246,422.8672 -994.12,417.3599 z M 0,4299.123 c 819.78398,122.1771 1647.2667,29.3506 2465.6541,-51.2229 606.5606,-31.2245 1218.7916,10.6561 1817.0909,113.0889 673.5581,134.6086 1245.8889,551.5362 1768.667,975.482 191.1417,143.972 259.435,380.1716 236.408,609.88 32.8436,460.5138 503.8663,704.9219 893.0922,831.7873 479.2735,146.8219 1061.3914,143.3611 1400.2298,570.9417 256.4566,360.8232 -490.4369,246.7204 -658.7658,201.7888"
         class="B"
         clip-path="url(#N)"
         id="path4" />
      <path
         d="m 7264.376,3446.641 c -344.4823,-29.0542 -731.6705,49.804 -1035.202,-153.275 -151.5244,-119.0823 4.5697,-295.7909 134.5861,-347.7254 403.7275,-221.3909 924.8934,-343.308 1156.0029,-780.5536 112.4615,-334.1548 91.6803,-706.5526 253.2297,-1028.0794 80.6805,-227.77777 331.2401,-338.2659 559.6463,-283.1646 451.0984,83.66665 915.4381,205.9313 1295.5316,472.4707 190.8988,123.168 237.5996,379.1337 129.9584,573.1163 -154.6234,444.8804 -572.7139,712.3933 -832.7,1088.992 -165.6496,240.081 -396.6828,472.2446 -709.2064,474.8658 -316.8184,26.2552 -634.9362,-9.0365 -951.8466,-16.6468 z M 0,5429.985 c 241.60698,125.1161 378.01392,373.7359 596.32,524.466 294.12516,164.4461 644.184,17.2938 861.1799,-206.0524 606.2073,-507.2895 1540.1349,-562.3047 2194.7824,-113.7397 417.9129,298.3103 634.8276,823.0943 1118.3477,1041.9791 477.7863,227.3869 984.8996,389.2472 1451.576,641.952 560.4037,269.934 1194.6413,321.4624 1801.9466,405.0349 322.0389,13.5065 1120.5595,137.6526 988.0302,-386.4895 -28.7597,-57.4226 -67.5203,-109.144 -109.5565,-157.4002"
         class="B"
         clip-path="url(#N)"
         id="path5" />
      <path
         d="m 13824,5291.165 c -216.206,132.0642 -404.683,355.3693 -358.608,624.692 -9.493,285.2177 -96.857,617.834 -346.142,780.924 -197.216,-57.5269 -277.252,-293.7562 -400.585,-445.491 -195.011,-262.6368 -219.274,-642.7677 -534.386,-810.4174 -378.377,-289.7766 -899.453,-395.8428 -1341.927,-190.3446 -405.327,133.0158 -695.592,473.5655 -1084.236,631.855 -401.3584,110.4185 -701.8733,-273.9652 -883.671,-576.407 -231.3955,-392.7979 -128.5327,-885.3385 -341.353,-1280.749 -259.5904,-324.4147 -728.3501,-315.9574 -1106.088,-358.014 -549.0486,-44.2682 -1176.6532,125.6283 -1656.164,-221.376 -185.0854,-127.28 -238.9411,-449.7803 3.326,-548.893 479.2346,-236.8413 1100.4024,-283.1986 1435.985,-745.248 130.5748,-311.3828 145.1146,-661.0859 196.931,-992.911 6.0098,-60.8501 10.5301,-121.8587 12.885,-182.964 M 0,4084.92 c 790.27385,157.0404 1594.4497,57.819 2385.326,-33.646 689.0479,-48.6975 1383.3805,35.4125 2060.055,161.872 700.9575,153.4664 1236.6644,662.4526 1807.029,1062.336 210.2639,145.4577 373.5065,373.9851 343.221,640.374 55.5655,421.5307 528.7471,595.0609 885.615,692.231 498.8271,114.6711 1052.3098,142.801 1414.362,558.023"
         class="B"
         clip-path="url(#N)"
         id="path6" />
      <path
         d="m 13824,1662.92 c -164.481,-36.8712 -460.475,-180.9 -325.271,-387.792 82.262,-105.0433 209.585,-160.7583 325.268,-220.216 M 0,282.895 C 390.87715,506.00722 862.37546,603.33344 1192.661,921.369 1398.9451,1153.6285 1155.3958,1463.9758 921.6,1555.501 635.99953,1692.9918 311.5708,1711.7726 0,1720.333 m 13824.017,2363.152 c -786.018,-28.7541 -1493.046,441.0338 -2276.901,404.69 -598.168,-87.5094 -1134.985,-393.1486 -1703.049,-584.938 -250.0282,-119.2883 -598.1567,-155.3468 -733.456,-426.917 -70.5451,-373.7962 228.5257,-691.2953 461.923,-945.314 261.8322,-257.329 546.341,-560.9892 572.764,-945.314 C 10089.35,1235.8275 9683.2174,1127.2943 9406.0097,998.03357 9053.4153,860.14772 8692.3162,734.49508 8374.0804,525.40317 8000.4982,355.50666 7435.9819,653.16436 7419.9461,1073.4873"
         class="B"
         clip-path="url(#N)"
         id="path7" />
      <path
         d="m 3686.4,2626.646 -29.338,-4.152 -24.874,-3.922 -54.212,-9.941 -54.212,-11.236 -24.189,-5.395 -30.023,-7.708 -54.212,-14.683 -27.802,-8.103 -26.41,-9.178 -54.212,-20.847 -1.103,-0.47 -53.109,-28.309 -3.667,-2.185 -38.389,-30.494 -12.156,-14.639 -11.97,-15.855 -11.532,-30.494 -0.106,-30.494 11.169,-30.494 12.439,-16.908 10.502,-13.586 35.289,-30.494 8.421,-5.466 40.027,-25.028 14.185,-7.131 47.703,-23.363 6.509,-2.675 54.212,-21.923 14.618,-5.895 39.594,-13.799 47.879,-16.695 6.333,-1.953 54.212,-16.104 45.213,-12.437 8.999,-2.23 54.212,-11.818 54.212,-9.827 47.951,-6.619 6.261,-0.792 54.212,-4.435 54.212,-1.828 54.212,0.942 54.212,3.836 18.171,2.277 36.041,4.966 54.212,10.763 54.212,14.08 2.148,0.685 52.063,18.501 28.633,11.993 25.579,12.13 34.018,18.365 20.194,12.537 26.124,17.957 28.088,22.561 9.133,7.933 29.306,30.494 15.773,20.344 7.474,10.15 16.937,30.494 11.518,30.494 5.685,30.494 -0.788,30.494 -8.199,30.494 -16.965,30.494 -15.662,17.816 -12.904,12.678 -41.307,28.638 -3.18,1.856 -51.032,23.177 -19.735,7.317 -34.477,10.556 -54.212,13.366 -33.798,6.572 -20.414,3.456 -54.212,7.125 -54.212,5.098 -54.212,3.245 -54.212,1.512 -54.212,-0.138 -54.212,-1.734 -54.212,-3.292 -54.212,-4.817 -54.212,-6.302 z"
         class="B"
         clip-path="url(#N)"
         id="path8" />
      <path
         d="M 3849.0348,828.38622 C 3684.6314,810.7956 3524.4973,755.09954 3383.368,669.26244 c -45.4962,-31.02479 -94.5629,-69.18035 -106.2127,-125.94869 -9.7908,-53.14073 25.8189,-101.64091 65.7577,-132.69718 61.9439,-50.66317 136.6217,-82.87541 210.318,-112.60384 198.6603,-77.29982 421.4825,-106.26811 629.8253,-52.41375 96.7357,26.88553 194.6824,71.27664 256.8809,153.18664 37.0093,50.23253 48.9154,118.42498 25.5157,176.97599 -33.8153,85.93958 -112.7744,144.17312 -192.8307,184.34508 -130.9658,63.21757 -279.7419,81.68879 -423.5884,68.27853"
         class="B"
         clip-path="url(#N)"
         id="path9" />
    </g>
    <path
       d="m 13824,6401.01 c -105.55,390.297 -128.99,788.7953 0,1177.72 M 8884.1898,546.19245 C 8441.5993,265.44706 7850.6078,102.6114 7343.3373,290.71333 6944.9122,486.65447 7118.4453,871.41074 7044.591,1341.746 c -46.0992,273.9352 -59.7118,572.2607 -203.9299,814.9126 -311.8703,345.6309 -814.2203,424.4752 -1256.8411,454.1944 -284.9482,36.7342 -515.6701,-148.2551 -684.473,-354.288 -367.7892,-392.2099 -955.932,-475.6298 -1455.6262,-329.939 -301.2872,82.1382 -653.7849,93.8294 -895.7668,310.484 -129.3538,215.6834 136.7284,420.8928 309.497,507.376 456.2839,193.2841 969.5131,122.1982 1452.527,152.3801 299.4353,-4.1171 669.7168,21.561 820.294,327.94 143.4774,251.0635 288.6636,566.5611 616.164,600.3599 670.2062,145.3828 1368.0538,-56.8529 2031.9825,121.3892 358.7797,82.1595 635.5987,386.1257 688.1805,749.5498 70.8661,418.5596 135.9592,849.6332 369.912,1214.753 105.0935,242.7369 355.7514,404.4689 623.5447,357.0146 403.3789,-19.7531 788.6523,-213.5885 1035.4253,-534.9746 385.26,-401.3136 1160.928,-459.8803 1497.233,30.495 159.029,352.0011 488.988,656.7173 470.998,1067.291 -43.625,317.4819 -301.774,577.9878 -572.304,721.4139 -743.567,306.7143 -1680.071,268.9005 -2360.6666,-173.6722"
       class="B"
       clip-path="url(#N)"
       id="path11" />
    <path
       d="m 0,3872.753 c 715.6918,156.0061 1450.7834,100.0482 2168.479,-8.168 807.1606,-108.6229 1615.9048,48.3223 2416.2234,142.2374 624.5758,62.4154 996.8325,616.7499 1487.0306,935.9316 282.8567,236.1649 690.9662,373.2344 846.726,729.144 14.9563,215.457 42.3903,463.1428 255.749,579.386 469.4391,318.0815 1285.9835,220.265 1581.6763,387.6404 302.8596,200.1604 460.4793,563.9519 785.4037,746.0256 M 13824,1909.89 c -318.304,-72.0392 -738.952,-181.5853 -836.866,-537.654 4.723,-322.0128 395.404,-399.54254 627.532,-518.399 70.637,-30.77113 140.828,-62.66977 209.335,-97.97 M 32.171,0 c 419.61953,418.15153 1046.1933,498.88576 1508.7157,846.1686 228.8095,241.2923 -4.4933,601.9979 -215.3737,770.0214 C 949.49622,1896.8991 448.53865,1902.3338 0,1921.129"
       class="B"
       clip-path="url(#N)"
       id="path12" />
    <path
       d="m 8881.0721,543.97311 c 445.9634,315.49301 1003.8706,386.37305 1494.0139,602.61299 274.676,152.2869 198.194,527.2252 51.107,744.0479 -235.428,477.4442 -852.4169,676.5344 -978.789,1219.762 -50.0237,309.0576 283.3046,467.8137 516.8582,569.5138 655.2918,269.7719 1327.2438,665.8883 2063.9428,550.4803 605.962,-86.5563 1173.441,-370.5951 1795.807,-356.1661 M 3218.1827,155.703 c -220.9203,78.65315 -520.6011,205.21821 -537.1577,473.77593 76.7227,234.37795 368.5705,271.37995 571.675,347.332 389.0164,126.33967 830.8846,227.41657 1214.235,25.56427 C 4691.8005,900.6564 4990.7246,663.94177 4864.38,385.52193 4632.1855,-4.7582216 4094.1318,56.832353 3702.743,73.939803 3539.492,88.673045 3376.6088,112.91618 3218.1827,155.703 Z"
       class="B"
       clip-path="url(#N)"
       id="path13" />
    <path
       d="m 0,7525.711 c 387.65906,187.1296 895.41825,232.7632 1229.707,-85.144 303.8145,-238.3567 470.5222,-711.035 916.0173,-710.275 440.951,-57.1141 910.8811,46.0118 1332.8967,-113.067 159.8037,-178.4686 -60.5547,-414.1456 -187.083,-548.892 -289.8724,-309.3971 -807.6644,-358.5019 -1123.064,-58.623 -247.5371,210.5153 -435.554,570.3456 -813.179,538.644 C 893.0849,6550.6424 396.0621,6497.061 0,6238.84 M 0,3671.859 c 747.82934,141.7497 1512.6786,92.5705 2257.217,-43.057 474.2696,-101.238 957.9029,-55.1345 1429.195,36.196 318.7939,18.7128 703.3074,111.7395 976.003,-97.185 109.1895,-243.6383 -229.7932,-379.6421 -420.1108,-401.9747 C 3691.2573,3049.0279 3059.0211,3314.8671 2576.4589,2933.3717 2240.3121,2703.0866 1969.6702,2234.4448 1734.786,2070.808 1573.0864,1952.8979 1010.4486,2093.3296 650.548,2090.503 433.88517,2103.2724 216.96647,2110.5573 0,2115.623 m 13824,0.361 c -491.443,-87.8169 -1036.573,-307.516 -1277.141,-774.242 -121.452,-217.8459 62.996,-433.29558 276.667,-478.25115 303.026,-132.63675 716.964,-156.28102 898.695,-467.06285 38.729,-312.79704 -385.378,-391.5471158 -619.802,-366.394411 -155.247,6.654117 -314.715,14.899973 -462.95,64.946837"
       class="B"
       clip-path="url(#N)"
       id="path14" />
    <path
       d="m 12645.199,91.482 c -361.075,164.24089 -426.723,661.32299 -827.033,774.34 -304.141,113.40903 -662.47,232.5655 -786.013,567.4 -165.268,362.5962 -337.443,754.1523 -698.368,963.5535 -241.713,179.1328 -574.8719,375.4741 -579.126,713.6195 63.8929,311.6233 427.013,397.6201 676.311,517.1814 521.578,223.1607 1074.59,486.7337 1658.261,379.6626 562.954,-94.9427 1100.304,-337.8476 1680.571,-326.343 18.071,-0.51 36.141,-1.02 54.212,-1.53 M 6585.017,487.916 c 105.2832,419.2669 133.5397,862.6328 5.946,1280.748 -29.5427,222.5325 -150.3385,442.419 -380.2971,505.4337 -359.33,145.8037 -780.3966,59.0717 -1065.638,-199.9035 C 4799.7269,1820.502 4404.6464,1641.4176 4011.672,1477.4 c -251.9121,35.6572 -475.4509,196.5034 -729.2287,244.2103 -435.3223,104.9026 -881.9596,192.6358 -1330.8243,194.0817 -202.8909,-21.1589 -114.8688,-270.9403 -62.314,-390.981 101.4485,-255.5008 287.4032,-559.55835 604.433,-529.773 515.1784,20.701 997.6291,223.3534 1463.719,423.622 269.0621,-50.5913 507.2411,-220.5622 748.1104,-349.6063 267.9633,-172.75838 442.4474,-315.84308 596.1335,-757.8296 161.5297,-443.21046 769.5087,-240.145611 1078.4202,-66.27188 86.0093,57.7052 194.3947,128.78827 204.8959,243.06378 z m 4153.095,-312.41603 c 186.585,114.24344 411.51,349.26057 300.661,582.636 -191.56,201.85663 -511.56,104.52855 -742.108,27.245 -181.862,-64.78924 -448.8458,-229.59148 -341.4973,-457.41 147.4633,-266.465787 540.2513,-288.898253 782.9443,-152.471 z"
       class="B"
       clip-path="url(#N)"
       id="path15" />
    <path
       d="m 10896.565,7628.8261 c 472.735,26.6014 960.271,-236.1627 1201.108,-642.176 179.497,-350.4176 -91.601,-709.9376 -335.678,-945.317 -184.757,-210.0229 -467.766,-411.602 -757.013,-283.822 -342.734,173.8267 -625.085,455.1122 -991.765,588.761 -202.1432,109.4826 -515.7302,143.6715 -586.9633,396.422 8.3794,329.3306 348.7621,520.2043 614.9813,640.374 276.66,104.588 559.01,215.323 855.33,245.758 z M 7806.494,6222.715 c 185.9196,20.83 485.3709,41.8562 547.008,-184.879 -8.6132,-215.8009 -143.0869,-416.7459 -95.416,-640.374 48.4559,-396.0379 31.2108,-889.0392 -343.164,-1128.511 -471.1689,-294.1118 -1049.6748,-170.7339 -1572.145,-154.412 -215.4179,9.0197 -520.8491,-16.0654 -503.78,215.632 53.0689,288.3049 338.5645,459.1865 557.99,621.83 315.7908,225.1117 748.4919,350.0444 929.874,719.911 33.9918,167.312 14.8731,383.5878 208.572,462.788 83.6445,46.5934 177.1007,72.3646 271.061,88.015 z M 0,7268.027 c 320.20326,132.0091 757.03678,225.0007 1017.573,-71.415 137.9196,-119.8492 80.3824,-340.3473 -95.97,-382.566 C 621.55914,6694.36 291.55633,6664.0509 0,6518.933 M 0,3504.219 c 682.57822,83.987 1412.1781,136.9535 2060.054,-137.011 181.3818,-61.9493 186.9565,-280.0153 76.802,-409.278 C 1897.494,2563.4736 1470.0642,2290.928 1003.4773,2283.1966 669.61917,2257.6673 334.24632,2274.397 0,2281.167"
       class="B"
       clip-path="url(#N)"
       id="path16" />
    <path
       d="m 13824,2286.861 c -610.741,-52.0066 -1127.909,-397.8945 -1626.356,-722.503 -297.644,-212.9048 -712.708,-94.0356 -910.384,197.2269 -206.776,307.9647 -452.282,590.7343 -770.179,789.2511 -181.6,133.3902 -497.368,323.2669 -369.692,590.059 242.166,283.2381 633.669,374.3336 966.026,514.288 533.392,218.4329 1116.944,132.3834 1656.921,-8.8896 345.976,-78.8626 698.499,-128.2756 1053.678,-133.1414 m -3090.085,3898.494 c 428.852,86.6901 989.608,-100.1289 1128.594,-550.47 61.381,-473.5294 -520.192,-822.2841 -941.44,-680.5343 -349.661,121.6236 -686.075,302.6274 -979.337,528.0623 -196.9393,172.9657 11.6344,421.6102 195.853,494.348 188.101,94.1827 390.501,165.2558 596.33,208.594 z M 7589.647,5279.13 c 356.6051,44.0709 494.2382,-431.9458 299.586,-674.518 -293.6386,-391.9058 -854.6101,-317.4351 -1275.397,-229.322 -163.827,8.5496 -271.1403,198.3038 -130.2736,314.067 260.0265,244.7677 597.2557,395.9935 918.163,545.1494 60.5312,22.5058 123.6329,38.0956 187.9216,44.6236 z M 5638.024,1904.736 c 358.1742,112.2133 578.7125,-289.9993 579.255,-593.487 23.1034,-238.7757 -112.9737,-627.16176 -416.62,-545.489 -295.6312,137.50746 -590.248,321.8437 -798.712,575.985 -110.1448,233.7288 202.2949,369.0168 365.018,459.429 87.1594,42.097 176.9427,80.0686 271.059,103.562 z M 0,3345.01 c 537.23505,52.0925 1129.3707,137.5205 1626.358,-123.582 240.3439,-149.9639 51.1405,-456.556 -133.4045,-562.0674 C 1058.3298,2373.1755 493.53343,2433.6135 0,2439.601"
       class="B"
       clip-path="url(#N)"
       id="path17" />
    <path
       d="m 13824,2448.161 c -587.95,-52.7987 -1110.009,-340.3821 -1654.95,-536.9495 -335.1,-126.8445 -646.595,93.3293 -877.059,314.8595 -234.729,228.724 -565.066,392.1021 -703.274,701.363 -28.762,276.1258 306.136,389.5478 508.489,487.904 645.601,292.0441 1357.992,123.4374 2022.043,5.339 233.226,-37.3935 468.687,-59.3272 704.756,-66.862 m -2927.44,3845.983 c 273.375,24.9844 677.374,-132.38 646.555,-460.599 -109.828,-368.7253 -613.589,-368.5683 -889.529,-193.2353 -160.479,75.8094 -419.775,289.6206 -228.875,467.6843 127.243,116.4697 302.407,173.082 471.849,186.15 z M 0,3157.902 c 395.00852,45.6206 837.78646,126.2218 1201.507,-77.997 187.6472,-144.3633 -42.7088,-349.6374 -199.2048,-384.5006 C 681.87714,2582.127 333.26931,2606.1688 0,2626.322"
       class="B"
       clip-path="url(#N)"
       id="path18" />
    <path
       d="m 13824,2637.743 c -348.664,-53.7153 -684.661,-163.8724 -1017.724,-276.8982 -270.122,-86.7396 -549.32,-188.6465 -837.695,-158.2955 -275.168,32.8209 -516.558,191.8462 -719.94,371.4346 -100.555,95.7081 -213.503,206.7485 -223.266,353.4481 0.363,139.0468 123.528,234.5055 234.457,295.8385 315.044,168.2927 685.175,191.8088 1034.995,162.1518 503.699,-45.1745 994.205,-184.937 1499.508,-217.6773 9.888,-0.833 19.776,-1.666 29.664,-2.499"
       class="B"
       clip-path="url(#N)"
       id="path19" />
    <path
       d="m 12089.224,3202.009 c 301.657,10.7689 603.022,-41.1016 891.736,-125.8794 99.127,-32.5424 202.325,-63.5994 286.94,-126.4333 32.913,-23.017 60.149,-67.4609 36.365,-106.1163 -38.34,-63.2466 -108.984,-97.3383 -171.244,-133.2614 -211.346,-107.2291 -436.628,-188.1065 -668.352,-238.1169 -222.381,-46.7273 -462.859,-47.68 -672.813,48.5027 -121.971,55.6755 -240.966,137.2633 -305.58,258.0305 -39.606,72.6183 -31.099,168.4414 27.308,228.589 84.98,94.2662 211.448,135.7726 331.668,164.0641 80.263,17.156 162.047,26.4818 243.972,30.621 z"
       class="B"
       clip-path="url(#N)"
       id="path20" />
  </g>
  <defs
     id="defs39">
    <clipPath
       id="N">
      <path
         d="M0 0h13824v7776H0z"
         id="path39" />
    </clipPath>
  </defs>
</svg>
